<svg width="24" height="24" viewBox="0 0 24 24" fill="none" xmlns="http://www.w3.org/2000/svg">
<path d="M17.9706 9L16.5564 10.4142M14.435 12.5355L13.0208 13.9497M10.8995 16.0711L9.48528 17.4853" stroke="black" stroke-width="1.5" stroke-linecap="round" stroke-linejoin="round"/>
<path d="M8.07107 1.92893C8.44614 1.55386 8.95485 1.34336 9.48528 1.34336C10.0157 1.34336 10.5244 1.55386 10.8995 1.92893L20.799 11.8284C21.1741 12.2035 21.3846 12.7122 21.3846 13.2426C21.3846 13.7731 21.1741 14.2818 20.799 14.6569L15.1421 20.3137C14.7671 20.6888 14.2584 20.8993 13.7279 20.8993C13.1975 20.8993 12.6888 20.6888 12.3137 20.3137L2.41421 10.4142C2.03914 10.0391 1.82864 9.53043 1.82864 9C1.82864 8.46957 2.03914 7.96086 2.41421 7.58579L2.79332 7.20668C4.12766 7.56284 5.61006 7.21836 6.65685 6.17157C7.70364 5.12478 8.04812 3.64238 7.69196 2.30804L8.07107 1.92893Z" stroke="black" stroke-width="1.5" stroke-linecap="round" stroke-linejoin="round"/>
</svg>
