<svg width="24" height="24" viewBox="0 0 24 24" fill="none" xmlns="http://www.w3.org/2000/svg">
<path d="M17.5781 12.5445C17.6082 15.8329 20.424 16.9272 20.4552 16.9412C20.4314 17.0183 20.0053 18.5006 18.9717 20.0318C18.0782 21.3555 17.1509 22.6744 15.6901 22.7017C14.2547 22.7285 13.7931 21.8389 12.1521 21.8389C10.5115 21.8389 9.99866 22.6744 8.63989 22.7286C7.22983 22.7827 6.15605 21.2972 5.25516 19.9782C3.41424 17.2804 2.0074 12.3548 3.89643 9.0299C4.83487 7.37875 6.51192 6.33318 8.33221 6.30637C9.71686 6.27959 11.0238 7.25063 11.8702 7.25063C12.7162 7.25063 14.3044 6.08287 15.974 6.25437C16.673 6.28386 18.635 6.54057 19.8948 8.40985C19.7933 8.47364 17.5537 9.79521 17.5781 12.5445ZM14.8804 4.46952C15.629 3.55098 16.1329 2.27229 15.9954 1C14.9164 1.04396 13.6115 1.72888 12.8375 2.64691C12.1439 3.45988 11.5364 4.76107 11.7003 6.00818C12.9031 6.10251 14.1318 5.38864 14.8804 4.46952Z" fill="#333333"/>
</svg>
