<svg width="24" height="24" viewBox="0 0 24 24" fill="none" xmlns="http://www.w3.org/2000/svg">
<path d="M2.11768 7.05546L5.76478 9.84408C6.60597 7.28016 9.00857 5.4422 11.8606 5.4422C13.3932 5.4422 14.7759 5.9838 15.8591 6.87685L19.0222 3.71372C17.0979 2.03709 14.6261 1 11.8606 1C7.56816 1 3.88649 3.46597 2.11768 7.06122V7.05546Z" fill="#EA4335"/>
<path d="M5.4422 11.8608C5.4422 11.1522 5.55744 10.4781 5.77062 9.84429L2.12351 7.05566C1.40907 8.50183 1 10.1324 1 11.8608C1 13.5893 1.40907 15.2199 2.12351 16.666L5.77062 13.8774C5.5632 13.2436 5.4422 12.5638 5.4422 11.8608Z" fill="#FBBC05"/>
<path d="M11.8604 9.88428V14.0845H17.6853C17.3915 15.5134 16.6022 16.6138 15.4671 17.334L18.9356 20.019C20.9291 18.1637 22.2313 15.4097 22.2313 11.8663C22.2313 11.2267 22.1333 10.5353 21.9835 9.89004H11.8604V9.88428Z" fill="#4285F4"/>
<path d="M11.8606 22.7271C14.5109 22.7271 17.0345 21.7822 18.9358 20.0134L15.4673 17.3285C14.4879 17.9449 13.2549 18.2791 11.8606 18.2791C9.00857 18.2791 6.60021 16.4354 5.76478 13.8657L2.11768 16.6601C3.88649 20.2554 7.56816 22.7213 11.8606 22.7213V22.7271Z" fill="#34A853"/>
</svg>
