<svg width="24" height="24" viewBox="0 0 24 24" fill="none" xmlns="http://www.w3.org/2000/svg">
<path d="M9.5 19C9.77614 19 10 18.7761 10 18.5C10 18.2239 9.77614 18 9.5 18C9.22386 18 9 18.2239 9 18.5C9 18.7761 9.22386 19 9.5 19Z" fill="black" stroke="black" stroke-width="1.5" stroke-linecap="round" stroke-linejoin="round"/>
<path d="M17.5 19C17.7761 19 18 18.7761 18 18.5C18 18.2239 17.7761 18 17.5 18C17.2239 18 17 18.2239 17 18.5C17 18.7761 17.2239 19 17.5 19Z" fill="black" stroke="black" stroke-width="1.5" stroke-linecap="round" stroke-linejoin="round"/>
<path d="M4 5H6.13904L8.20278 14.7117C8.2732 15.08 8.46607 15.4109 8.74763 15.6464C9.02919 15.8818 9.3815 16.0069 9.74289 15.9997H17.2278C17.5892 16.0069 17.9415 15.8818 18.2231 15.6464C18.5046 15.4109 18.6975 15.08 18.7679 14.7117L20 8.9999H6.98902" stroke="black" stroke-width="1.5" stroke-linecap="round" stroke-linejoin="round"/>
</svg>
