<svg width="14" height="12" viewBox="0 0 14 12" fill="none" xmlns="http://www.w3.org/2000/svg">
<path d="M2.33333 9.33301C2.33333 9.68663 2.47381 10.0258 2.72386 10.2758C2.97391 10.5259 3.31304 10.6663 3.66667 10.6663C4.02029 10.6663 4.35943 10.5259 4.60948 10.2758C4.85952 10.0258 5 9.68663 5 9.33301M2.33333 9.33301C2.33333 8.97939 2.47381 8.64025 2.72386 8.3902C2.97391 8.14015 3.31304 7.99967 3.66667 7.99967C4.02029 7.99967 4.35943 8.14015 4.60948 8.3902C4.85952 8.64025 5 8.97939 5 9.33301M2.33333 9.33301H1V1.99967C1 1.82286 1.07024 1.65329 1.19526 1.52827C1.32029 1.40325 1.48986 1.33301 1.66667 1.33301H7.66667V9.33301M5 9.33301H9M9 9.33301C9 9.68663 9.14048 10.0258 9.39052 10.2758C9.64057 10.5259 9.97971 10.6663 10.3333 10.6663C10.687 10.6663 11.0261 10.5259 11.2761 10.2758C11.5262 10.0258 11.6667 9.68663 11.6667 9.33301M9 9.33301C9 8.97939 9.14048 8.64025 9.39052 8.3902C9.64057 8.14015 9.97971 7.99967 10.3333 7.99967C10.687 7.99967 11.0261 8.14015 11.2761 8.3902C11.5262 8.64025 11.6667 8.97939 11.6667 9.33301M11.6667 9.33301H13V5.33301M13 5.33301H7.66667M13 5.33301L11 1.99967H7.66667" stroke="currentColor" stroke-linecap="round" stroke-linejoin="round"/>
</svg>
