<svg width="24" height="24" viewBox="0 0 24 24" fill="none" xmlns="http://www.w3.org/2000/svg">
<path d="M3.05 12.8241C3.27409 15.024 4.30027 17.0645 5.93274 18.5561C7.56521 20.0478 9.6897 20.8862 11.9009 20.9115C14.1121 20.9367 16.2552 20.147 17.9213 18.6931C19.5874 17.2391 20.6599 15.2226 20.9342 13.0284C21.2085 10.8341 20.6653 8.61568 19.4084 6.79633C18.1514 4.97697 16.2686 3.68405 14.1193 3.16424C11.9699 2.64443 9.70441 2.93411 7.755 3.97802C5.80559 5.02193 4.30872 6.747 3.55 8.82409M3.05 3.82409V8.82409H8.05" stroke="black" stroke-width="1.5" stroke-linecap="round" stroke-linejoin="round"/>
<path d="M13.867 9.75003C13.621 9.27003 13.159 8.98103 12.667 9.00003L12 9M10.133 14.248C10.379 14.728 10.841 15.017 11.333 14.998H12H12.667C13.403 14.998 14 14.327 14 13.499C14 12.67 13.403 11.999 12.667 11.999H11.333C10.597 11.999 10 11.327 10 10.5C10 9.67003 10.597 9.00003 11.333 9.00003L12 9M12 7V9M12 15V17" stroke="black" stroke-width="1.5" stroke-linecap="round" stroke-linejoin="round"/>
</svg>
