<svg width="24" height="24" viewBox="0 0 24 24" fill="none" xmlns="http://www.w3.org/2000/svg">
<path d="M14.5377 0.398792C13.7401 0.145015 12.8701 0 11.9818 0C9.42595 0 7.12383 1.16012 5.58305 2.99094L9.53471 6.30816L14.5377 0.398792Z" fill="#1A73E8"/>
<path d="M5.58308 2.99094C4.36858 4.44109 3.62538 6.32629 3.62538 8.3565C3.62538 9.93354 3.93353 11.2024 4.45921 12.3444L9.53474 6.30816L5.58308 2.99094Z" fill="#EA4335"/>
<path d="M12 5.16621C13.7765 5.16621 15.2085 6.59823 15.2085 8.37467C15.2085 9.15413 14.9184 9.8792 14.4471 10.4411C14.4471 10.4411 16.9668 7.43207 19.432 4.51364C18.4169 2.55594 16.6586 1.06953 14.5378 0.398834L9.53476 6.3082C10.1329 5.61938 11.003 5.16621 12 5.16621Z" fill="#4285F4"/>
<path d="M12 11.5649C10.2236 11.5649 8.79156 10.1329 8.79156 8.35648C8.79156 7.57702 9.06346 6.85194 9.53476 6.30814L4.45923 12.3444C5.32932 14.2658 6.77947 15.8248 8.26588 17.7643L14.4471 10.4229C13.849 11.1299 12.9789 11.5649 12 11.5649Z" fill="#FBBC04"/>
<path d="M14.3384 19.7946C17.1299 15.426 20.3746 13.4501 20.3746 8.37461C20.3746 6.97884 20.0302 5.6737 19.432 4.51358L8.26588 17.7643C8.73718 18.3807 9.2266 19.0876 9.6979 19.8127C11.4018 22.4411 10.9305 24 12.0181 24C13.1058 24 12.6345 22.423 14.3384 19.7946Z" fill="#34A853"/>
</svg>
