<svg width="24" height="24" viewBox="0 0 24 24" fill="none" xmlns="http://www.w3.org/2000/svg">
<path d="M7 18C5.75228 18 4.55566 17.5259 3.67339 16.682C2.79111 15.8381 2.29546 14.6935 2.29546 13.5C2.29546 12.3065 2.79111 11.1619 3.67339 10.318C4.55566 9.47412 5.75228 9.00001 7 9.00001C7.29469 7.68719 8.15676 6.5335 9.39659 5.79273C10.0105 5.42594 10.6986 5.17156 11.4218 5.04412C12.1449 4.91669 12.8888 4.91869 13.6111 5.05001C14.3334 5.18133 15.0198 5.43941 15.6313 5.80949C16.2427 6.17958 16.7672 6.65443 17.1748 7.20694C17.5823 7.75945 17.8649 8.37879 18.0065 9.02961C18.1481 9.68043 18.1459 10.35 18 11H19C19.9283 11 20.8185 11.3688 21.4749 12.0251C22.1313 12.6815 22.5 13.5718 22.5 14.5C22.5 15.4283 22.1313 16.3185 21.4749 16.9749C20.8185 17.6313 19.9283 18 19 18H18M9 15L12 12M12 12L15 15M12 12V21" stroke="#262626" stroke-width="1.5" stroke-linecap="round" stroke-linejoin="round"/>
</svg>
