<svg width="24" height="24" viewBox="0 0 24 24" fill="none" xmlns="http://www.w3.org/2000/svg">
<path d="M12 2L12.324 2.001L12.642 2.005L13.258 2.022L13.557 2.035L14.136 2.069L14.689 2.115C19.474 2.579 21.421 4.526 21.885 9.311L21.931 9.864L21.965 10.443C21.97 10.541 21.975 10.641 21.978 10.742L21.995 11.358L22 12L21.995 12.642L21.978 13.258L21.965 13.557L21.931 14.136L21.885 14.689C21.421 19.474 19.474 21.421 14.689 21.885L14.136 21.931L13.557 21.965C13.459 21.97 13.359 21.975 13.258 21.978L12.642 21.995L12 22L11.358 21.995L10.742 21.978L10.443 21.965L9.864 21.931L9.311 21.885C4.526 21.421 2.579 19.474 2.115 14.689L2.069 14.136L2.035 13.557C2.03014 13.4574 2.0258 13.3577 2.022 13.258L2.005 12.642C2.002 12.432 2 12.218 2 12L2.001 11.676L2.005 11.358L2.022 10.742L2.035 10.443L2.069 9.864L2.115 9.311C2.579 4.526 4.526 2.579 9.311 2.115L9.864 2.069L10.443 2.035C10.541 2.03 10.641 2.025 10.742 2.022L11.358 2.005C11.568 2.002 11.782 2 12 2Z" fill="black"/>
<path d="M7.5 9H8.5H16.5" stroke="white" stroke-linecap="round" stroke-linejoin="round"/>
<path d="M15.5 9V16C15.5 16.2652 15.3946 16.5196 15.2071 16.7071C15.0196 16.8946 14.7652 17 14.5 17H9.5C9.23478 17 8.98043 16.8946 8.79289 16.7071C8.60536 16.5196 8.5 16.2652 8.5 16V9M10 9V8C10 7.73478 10.1054 7.48043 10.2929 7.29289C10.4804 7.10536 10.7348 7 11 7H13C13.2652 7 13.5196 7.10536 13.7071 7.29289C13.8946 7.48043 14 7.73478 14 8V9" stroke="white" stroke-linecap="round" stroke-linejoin="round"/>
<path d="M11 11.5V14.5" stroke="white" stroke-linecap="round" stroke-linejoin="round"/>
<path d="M13 11.5V14.5" stroke="white" stroke-linecap="round" stroke-linejoin="round"/>
</svg>
