<svg width="24" height="24" viewBox="0 0 24 24" fill="none" xmlns="http://www.w3.org/2000/svg">
<path d="M13 10L20.383 17.418C21.206 18.238 21.206 19.566 20.383 20.385C19.9876 20.7783 19.4527 20.999 18.895 20.999C18.3374 20.999 17.8024 20.7783 17.407 20.385L10 13M13 10L9 6M13 10L13.5 10.5L15.793 8.207C15.9805 8.01947 16.0858 7.76517 16.0858 7.5C16.0858 7.23484 15.9805 6.98053 15.793 6.793L12.207 3.207C12.0195 3.01953 11.7652 2.91422 11.5 2.91422C11.2348 2.91422 10.9805 3.01953 10.793 3.207L8.5 5.5L9 6M13 10L10 13M10 13L6 9M10 13L10.5 13.5L8.207 15.793C8.01947 15.9805 7.76517 16.0858 7.5 16.0858C7.23484 16.0858 6.98053 15.9805 6.793 15.793L3.207 12.207C3.01953 12.0195 2.91422 11.7652 2.91422 11.5C2.91422 11.2348 3.01953 10.9805 3.207 10.793L5.5 8.5L6 9M6 9L9 6M3 21H10" stroke="black" stroke-width="1.5" stroke-linecap="round" stroke-linejoin="round"/>
</svg>
